<svg width="48" height="48" viewBox="0 0 48 48" fill="none" xmlns="http://www.w3.org/2000/svg">
<g clip-path="url(#clip0_2314_21316)">
<path d="M24 47.9977C37.2549 47.9977 48 37.2531 48 23.9989C48 10.7446 37.2549 0 24 0C10.7451 0 0 10.7446 0 23.9989C0 37.2531 10.7451 47.9977 24 47.9977Z" fill="#32BEA6"/>
<path d="M37.9637 12.6539C37.9637 11.2079 36.7911 10.0359 35.3455 10.0359C33.8998 10.0359 32.7273 11.2079 32.7273 12.6539V15.272H37.9637V12.6539Z" fill="#E2E4E5"/>
<path d="M35.3455 10.0359C33.6001 10.0359 32.7273 11.7813 32.7273 12.6539V35.3438C32.7273 36.7881 31.5535 37.9618 30.1092 37.9618H13.5273V12.6539C13.5273 11.2097 14.7012 10.0359 16.1455 10.0359H35.3455Z" fill="white"/>
<path d="M27.4909 35.3436V32.7256H10.0364V35.3436C10.0364 36.7892 11.2089 37.9617 12.6546 37.9617H30.1091C28.6634 37.9617 27.4909 36.7892 27.4909 35.3436Z" fill="#E2E4E5"/>
<path d="M24.4362 17.8904C24.4362 18.1313 24.2408 18.3268 23.9999 18.3268H17.4544C17.2136 18.3268 17.0181 18.1313 17.0181 17.8904C17.0181 17.6496 17.2136 17.4541 17.4544 17.4541H23.9999C24.2408 17.4541 24.4362 17.6496 24.4362 17.8904Z" fill="#E2E4E5"/>
<path d="M29.2362 21.3809C29.2362 21.6218 29.0408 21.8173 28.7999 21.8173H17.4544C17.2136 21.8173 17.0181 21.6218 17.0181 21.3809C17.0181 21.1401 17.2136 20.9446 17.4544 20.9446H28.7999C29.0408 20.9446 29.2362 21.1401 29.2362 21.3809Z" fill="#E2E4E5"/>
<path d="M29.2362 24.872C29.2362 25.1129 29.0408 25.3084 28.7999 25.3084H17.4544C17.2136 25.3084 17.0181 25.1129 17.0181 24.872C17.0181 24.6312 17.2136 24.4357 17.4544 24.4357H28.7999C29.0408 24.4357 29.2362 24.6312 29.2362 24.872Z" fill="#E2E4E5"/>
<path d="M29.2362 28.3621C29.2362 28.603 29.0408 28.7985 28.7999 28.7985H17.4544C17.2136 28.7985 17.0181 28.603 17.0181 28.3621C17.0181 28.1213 17.2136 27.9258 17.4544 27.9258H28.7999C29.0408 27.9258 29.2362 28.1213 29.2362 28.3621Z" fill="#E2E4E5"/>
</g>
<defs>
<clipPath id="clip0_2314_21316">
<rect width="48" height="47.9977" fill="white"/>
</clipPath>
</defs>
</svg>
