<svg width="48" height="48" viewBox="0 0 48 48" fill="none" xmlns="http://www.w3.org/2000/svg">
<g clip-path="url(#clip0_2314_21751)">
<path d="M24 47.9977C37.255 47.9977 48 37.2532 48 23.9989C48 10.7445 37.255 0 24 0C10.745 0 0 10.7445 0 23.9989C0 37.2532 10.745 47.9977 24 47.9977Z" fill="#32BEA6"/>
<path d="M10.0364 20.5077L23.4764 10.4282C23.6275 10.315 23.8112 10.2538 24 10.2538C24.1888 10.2538 24.3726 10.315 24.5237 10.4282L37.9637 20.5077L24 30.98L10.0364 20.5077Z" fill="#E2E4E5"/>
<path d="M36.2183 25.7848C36.2181 25.9837 36.1391 26.1744 35.9984 26.315C35.8578 26.4557 35.6671 26.5347 35.4682 26.5349H12.9684C12.7695 26.5347 12.5787 26.4557 12.4381 26.315C12.2974 26.1744 12.2184 25.9837 12.2183 25.7848V13.7854C12.2183 13.3713 12.5543 13.0353 12.9684 13.0353H35.4682C35.8823 13.0353 36.2183 13.3713 36.2183 13.7854V25.7848Z" fill="#8CE3D4"/>
<path d="M34.718 17.1605V22.4101C34.3732 22.4099 34.0317 22.4777 33.7131 22.6095C33.3945 22.7413 33.105 22.9347 32.8612 23.1785C32.6174 23.4223 32.4241 23.7118 32.2922 24.0304C32.1604 24.3489 32.0926 24.6904 32.0929 25.0352H16.3432C16.3434 24.6904 16.2757 24.3489 16.1438 24.0304C16.012 23.7118 15.8186 23.4223 15.5748 23.1785C15.331 22.9347 15.0415 22.7413 14.7229 22.6095C14.4043 22.4777 14.0628 22.4099 13.718 22.4101V17.1605C14.0628 17.1607 14.4043 17.093 14.7229 16.9611C15.0415 16.8293 15.331 16.636 15.5748 16.3922C15.8186 16.1484 16.012 15.8589 16.1438 15.5403C16.2757 15.2217 16.3434 14.8803 16.3432 14.5355H32.0933C32.093 14.8802 32.1607 15.2217 32.2925 15.5403C32.4243 15.8588 32.6176 16.1483 32.8614 16.3921C33.1052 16.6359 33.3946 16.8293 33.7132 16.9611C34.0318 17.093 34.3732 17.1607 34.718 17.1605Z" fill="#0D9681"/>
<path d="M31.7187 20.9111C31.8664 20.9111 32.0127 20.882 32.1493 20.8254C32.2858 20.7689 32.4098 20.686 32.5143 20.5815C32.6188 20.477 32.7017 20.353 32.7582 20.2165C32.8147 20.08 32.8438 19.9337 32.8438 19.7859C32.8438 19.6382 32.8147 19.4919 32.7582 19.3554C32.7017 19.2189 32.6188 19.0948 32.5143 18.9904C32.4098 18.8859 32.2858 18.803 32.1493 18.7465C32.0127 18.6899 31.8664 18.6608 31.7187 18.6608C31.4203 18.6608 31.1341 18.7794 30.9231 18.9904C30.7121 19.2014 30.5935 19.4875 30.5935 19.7859C30.5935 20.0843 30.7121 20.3705 30.9231 20.5815C31.1341 20.7925 31.4203 20.9111 31.7187 20.9111Z" fill="#C2F8F0"/>
<path d="M16.7187 20.9111C16.8664 20.9111 17.0127 20.882 17.1493 20.8254C17.2858 20.7689 17.4098 20.686 17.5143 20.5815C17.6188 20.477 17.7017 20.353 17.7582 20.2165C17.8147 20.08 17.8438 19.9337 17.8438 19.7859C17.8438 19.6382 17.8147 19.4919 17.7582 19.3554C17.7017 19.2189 17.6188 19.0948 17.5143 18.9904C17.4098 18.8859 17.2858 18.803 17.1493 18.7465C17.0127 18.6899 16.8664 18.6608 16.7187 18.6608C16.4203 18.6608 16.1341 18.7794 15.9231 18.9904C15.712 19.2014 15.5935 19.4875 15.5935 19.7859C15.5935 20.0843 15.712 20.3705 15.9231 20.5815C16.1341 20.7925 16.4203 20.9111 16.7187 20.9111Z" fill="#0D9681"/>
<path d="M16.3432 25.0347C16.3434 24.6899 16.2757 24.3485 16.1438 24.0299C16.012 23.7113 15.8186 23.4218 15.5748 23.178C15.331 22.9342 15.0415 22.7409 14.7229 22.609C14.4043 22.4772 14.0628 22.4094 13.718 22.4097V17.16C14.0628 17.1603 14.4043 17.0925 14.7229 16.9607C15.0415 16.8288 15.331 16.6355 15.5748 16.3917C15.8186 16.1479 16.012 15.8584 16.1438 15.5398C16.2757 15.2212 16.3434 14.8798 16.3432 14.535H29.617L31.1172 13.0353H12.9684C12.7695 13.0354 12.5787 13.1145 12.4381 13.2551C12.2974 13.3957 12.2184 13.5865 12.2183 13.7854V25.7848C12.2183 26.1989 12.5543 26.5349 12.9684 26.5349H17.6174L19.1176 25.0347H16.3432Z" fill="#C2F8F0"/>
<path d="M13.718 17.1606V22.4102C14.0628 22.41 14.4043 22.4777 14.7229 22.6095C15.0415 22.7414 15.331 22.9347 15.5748 23.1785C15.8186 23.4223 16.012 23.7118 16.1438 24.0304C16.2757 24.349 16.3434 24.6904 16.3432 25.0352H19.1171L21.6446 22.5079C21.273 22.1585 20.9769 21.7367 20.7746 21.2685C20.5722 20.8003 20.4679 20.2956 20.4681 19.7856C20.4681 18.791 20.8632 17.8372 21.5665 17.134C22.2698 16.4307 23.2236 16.0357 24.2182 16.0357C24.7283 16.0355 25.233 16.1398 25.7012 16.3421C26.1695 16.5444 26.5913 16.8405 26.9407 17.212L29.6174 14.5359H16.3432C16.3434 14.8807 16.2757 15.2222 16.1438 15.5407C16.012 15.8593 15.8186 16.1487 15.5748 16.3925C15.331 16.6363 15.0415 16.8296 14.7229 16.9614C14.4043 17.0932 14.0628 17.1608 13.718 17.1606ZM17.8434 19.7856C17.8463 19.9352 17.8194 20.0838 17.7642 20.2228C17.709 20.3619 17.6267 20.4885 17.5219 20.5953C17.4172 20.7021 17.2922 20.787 17.1543 20.8449C17.0164 20.9028 16.8683 20.9326 16.7187 20.9326C16.5691 20.9326 16.421 20.9028 16.2831 20.8449C16.1451 20.787 16.0202 20.7021 15.9154 20.5953C15.8107 20.4885 15.7283 20.3619 15.6731 20.2228C15.6179 20.0838 15.591 19.9352 15.5939 19.7856C15.5997 19.4911 15.7208 19.2107 15.9311 19.0045C16.1414 18.7983 16.4242 18.6829 16.7187 18.6829C17.0132 18.6829 17.296 18.7983 17.5063 19.0045C17.7166 19.2107 17.8376 19.4911 17.8434 19.7856Z" fill="#17B198"/>
<path d="M24.2181 23.5354C25.2127 23.5354 26.1666 23.1404 26.8699 22.4371C27.5731 21.7339 27.9682 20.7801 27.9682 19.7855C27.9682 18.791 27.5731 17.8372 26.8699 17.1339C26.1666 16.4307 25.2127 16.0356 24.2181 16.0356C23.2235 16.0356 22.2697 16.4307 21.5664 17.1339C20.8631 17.8372 20.468 18.791 20.468 19.7855C20.468 20.7801 20.8631 21.7339 21.5664 22.4371C22.2697 23.1404 23.2235 23.5354 24.2181 23.5354Z" fill="#C2F8F0"/>
<path d="M24.2129 17.8453C24.3433 17.8453 24.4472 17.9492 24.4472 18.0796V18.1429C24.6762 18.1744 24.8975 18.2478 25.0999 18.3593C25.1491 18.3851 25.1903 18.4239 25.2189 18.4716C25.2474 18.5192 25.2623 18.5738 25.2618 18.6294C25.2621 18.6694 25.2544 18.7092 25.239 18.7462C25.2237 18.7832 25.2012 18.8168 25.1726 18.8449C25.1441 18.8731 25.1103 18.8952 25.073 18.9101C25.0358 18.9249 24.996 18.9321 24.9559 18.9313C24.9009 18.9312 24.8467 18.9173 24.7984 18.8907C24.6804 18.8252 24.555 18.7738 24.4249 18.7376V19.4221C25.1091 19.6067 25.4019 19.8859 25.4019 20.3898C25.4019 20.8942 25.0148 21.2179 24.4476 21.2812V21.5199C24.4479 21.5507 24.442 21.5813 24.4303 21.6098C24.4186 21.6383 24.4013 21.6642 24.3795 21.686C24.3577 21.7078 24.3318 21.7251 24.3033 21.7368C24.2747 21.7485 24.2442 21.7544 24.2133 21.7542C24.1825 21.7544 24.1519 21.7485 24.1234 21.7368C24.0948 21.7251 24.0689 21.7078 24.0471 21.686C24.0253 21.6642 24.0081 21.6383 23.9964 21.6098C23.9847 21.5813 23.9788 21.5507 23.979 21.5199V21.2768C23.6646 21.2356 23.3624 21.1282 23.0924 20.9618C23.045 20.9347 23.0058 20.8953 22.9788 20.8478C22.9519 20.8003 22.9382 20.7464 22.9393 20.6918C22.9393 20.5164 23.0741 20.3855 23.2499 20.3855C23.3084 20.3855 23.3717 20.4077 23.4253 20.4439C23.6143 20.5657 23.7945 20.6512 24.0017 20.6961V19.9806C23.3533 19.8052 23.0339 19.5574 23.0339 19.022C23.0339 18.5268 23.4122 18.1935 23.9795 18.135V18.0809C23.979 18.0501 23.9847 18.0194 23.9962 17.9907C24.0078 17.9621 24.0249 17.936 24.0467 17.9141C24.0684 17.8921 24.0943 17.8748 24.1228 17.863C24.1514 17.8512 24.182 17.8452 24.2129 17.8453ZM24.0013 19.3043V18.6966C23.7853 18.728 23.6906 18.8362 23.6906 18.9802C23.6906 19.1193 23.7534 19.214 24.0013 19.3043ZM24.4245 20.0918V20.7179C24.6361 20.6865 24.7439 20.587 24.7439 20.4252C24.7439 20.2764 24.6675 20.1774 24.4245 20.0918Z" fill="#17B198"/>
<path d="M23.0915 20.9618C23.0441 20.9347 23.0049 20.8953 22.978 20.8478C22.9511 20.8002 22.9376 20.7463 22.9388 20.6917C22.9388 20.5163 23.0736 20.3859 23.249 20.3859C23.3075 20.3859 23.3708 20.4081 23.4244 20.4443C23.486 20.484 23.5466 20.5133 23.6077 20.5451L24.0004 20.1524V19.9809C23.3529 19.8055 23.0335 19.5581 23.0335 19.0232C23.0335 18.5284 23.4113 18.1959 23.9782 18.137V18.0833C23.9782 17.9528 24.0816 17.8494 24.2121 17.8494C24.3425 17.8494 24.446 17.9528 24.446 18.0833V18.1461C24.6747 18.1776 24.8958 18.2507 25.0983 18.3617C25.1475 18.3874 25.1887 18.4263 25.2173 18.474C25.2458 18.5216 25.2607 18.5762 25.2602 18.6318C25.2605 18.6718 25.2527 18.7115 25.2373 18.7485C25.222 18.7854 25.1994 18.819 25.1709 18.8471C25.1424 18.8752 25.1085 18.8973 25.0713 18.9121C25.0341 18.9269 24.9944 18.9341 24.9543 18.9333C24.8992 18.9332 24.8451 18.9193 24.7968 18.8927C24.6788 18.8272 24.5534 18.7759 24.4233 18.74V19.4233C24.5071 19.446 24.5847 19.47 24.6572 19.4957L26.9411 17.2115C26.5917 16.8399 26.1699 16.5438 25.7016 16.3414C25.2334 16.1391 24.7287 16.0349 24.2186 16.0351C23.224 16.0351 22.2702 16.4302 21.5669 17.1334C20.8636 17.8367 20.4685 18.7905 20.4685 19.785C20.4683 20.2951 20.5726 20.7998 20.7749 21.268C20.9773 21.7362 21.2734 22.158 21.6449 22.5074L23.1565 20.9963C23.1347 20.985 23.112 20.9745 23.0915 20.9618Z" fill="white"/>
<path d="M16.7182 20.9111C16.8659 20.9111 17.0123 20.882 17.1488 20.8254C17.2853 20.7689 17.4093 20.686 17.5138 20.5815C17.6183 20.477 17.7012 20.353 17.7577 20.2165C17.8143 20.08 17.8434 19.9337 17.8434 19.7859C17.8434 19.6382 17.8143 19.4919 17.7577 19.3554C17.7012 19.2189 17.6183 19.0948 17.5138 18.9904C17.4093 18.8859 17.2853 18.803 17.1488 18.7465C17.0123 18.6899 16.8659 18.6608 16.7182 18.6608C16.4198 18.6608 16.1336 18.7794 15.9226 18.9904C15.7116 19.2014 15.593 19.4875 15.593 19.7859C15.593 20.0843 15.7116 20.3705 15.9226 20.5815C16.1336 20.7925 16.4198 20.9111 16.7182 20.9111Z" fill="white"/>
<path d="M23.9998 18.7014V19.3059C23.7521 19.2182 23.6897 19.12 23.6897 18.9803C23.6897 18.8406 23.7826 18.7323 23.9998 18.7014Z" fill="white"/>
<path d="M37.9637 20.5077L24 30.9799L10.0364 20.5077V37.9614H37.9637V20.5077Z" fill="white"/>
</g>
<defs>
<clipPath id="clip0_2314_21751">
<rect width="48" height="47.9977" fill="white"/>
</clipPath>
</defs>
</svg>
